<svg width="24" height="24" viewBox="0 0 24 24" fill="none" xmlns="http://www.w3.org/2000/svg">
<path d="M21.9191 7.90309C21.9079 7.06334 21.7507 6.23193 21.4545 5.44606C21.1976 4.78318 20.8053 4.18117 20.3027 3.67849C19.8 3.17581 19.198 2.78351 18.5351 2.52667C17.7593 2.23546 16.9398 2.07799 16.1113 2.06098C15.0447 2.01331 14.7065 2 11.9989 2C9.29128 2 8.94423 2 7.88536 2.06098C7.05728 2.07812 6.23811 2.23558 5.46269 2.52667C4.79971 2.78333 4.19761 3.17557 3.6949 3.67827C3.1922 4.18097 2.79997 4.78308 2.5433 5.44606C2.2515 6.22124 2.09438 7.04059 2.07872 7.86872C2.03105 8.93647 2.01663 9.27464 2.01663 11.9823C2.01663 14.6899 2.01663 15.0358 2.07872 16.0958C2.09535 16.9252 2.25169 17.7434 2.5433 18.5207C2.8004 19.1835 3.19292 19.7853 3.69579 20.2878C4.19867 20.7903 4.80083 21.1824 5.4638 21.439C6.23709 21.7419 7.05641 21.9106 7.88646 21.9379C8.95421 21.9856 9.29239 22 12 22C14.7076 22 15.0547 22 16.1135 21.9379C16.942 21.9216 17.7616 21.7645 18.5373 21.4733C19.2 21.2162 19.8019 20.8238 20.3045 20.3211C20.8072 19.8185 21.1996 19.2166 21.4567 18.5539C21.7483 17.7778 21.9047 16.9595 21.9213 16.1291C21.969 15.0624 21.9834 14.7243 21.9834 12.0155C21.9812 9.30791 21.9812 8.96419 21.9191 7.90309V7.90309ZM11.9922 17.1026C9.16044 17.1026 6.86639 14.8085 6.86639 11.9767C6.86639 9.14492 9.16044 6.85087 11.9922 6.85087C13.3517 6.85087 14.6555 7.39091 15.6168 8.3522C16.578 9.31348 17.1181 10.6173 17.1181 11.9767C17.1181 13.3362 16.578 14.64 15.6168 15.6012C14.6555 16.5625 13.3517 17.1026 11.9922 17.1026V17.1026ZM17.3221 7.85653C17.1651 7.85667 17.0096 7.82586 16.8645 7.76584C16.7194 7.70582 16.5876 7.61779 16.4766 7.50677C16.3656 7.39575 16.2775 7.26393 16.2175 7.11885C16.1575 6.97377 16.1267 6.81828 16.1268 6.66127C16.1268 6.50438 16.1577 6.34903 16.2178 6.20408C16.2778 6.05913 16.3658 5.92743 16.4768 5.81649C16.5877 5.70555 16.7194 5.61755 16.8644 5.55751C17.0093 5.49747 17.1647 5.46657 17.3215 5.46657C17.4784 5.46657 17.6338 5.49747 17.7787 5.55751C17.9237 5.61755 18.0554 5.70555 18.1663 5.81649C18.2773 5.92743 18.3653 6.05913 18.4253 6.20408C18.4853 6.34903 18.5162 6.50438 18.5162 6.66127C18.5162 7.3221 17.9818 7.85653 17.3221 7.85653Z" fill="black"/>
<path d="M11.9926 15.3056C13.8315 15.3056 15.3222 13.8149 15.3222 11.976C15.3222 10.1371 13.8315 8.64632 11.9926 8.64632C10.1537 8.64632 8.66295 10.1371 8.66295 11.976C8.66295 13.8149 10.1537 15.3056 11.9926 15.3056Z" fill="black"/>
</svg>
