<svg width="24" height="24" viewBox="0 0 24 24" fill="none" xmlns="http://www.w3.org/2000/svg">
<path d="M8.2896 20.1255C15.8368 20.1255 19.9648 13.8727 19.9648 8.45032C19.9648 8.27272 19.9648 8.09592 19.9528 7.91992C20.7559 7.33905 21.4491 6.61982 22 5.79592C21.2512 6.12792 20.4567 6.34555 19.6432 6.44152C20.4998 5.92876 21.141 5.12217 21.4472 4.17192C20.6417 4.64993 19.7605 4.98678 18.8416 5.16792C18.2229 4.51007 17.4047 4.07445 16.5135 3.92849C15.6223 3.78253 14.7078 3.93435 13.9116 4.36046C13.1154 4.78658 12.4819 5.46323 12.109 6.28571C11.7361 7.10819 11.6446 8.03064 11.8488 8.91032C10.2174 8.82848 8.62146 8.40451 7.16455 7.66592C5.70763 6.92733 4.4223 5.89064 3.392 4.62312C2.86727 5.52645 2.70656 6.59581 2.94258 7.61347C3.17861 8.63113 3.79362 9.52058 4.6624 10.1007C4.00936 10.0816 3.37054 9.90542 2.8 9.58712V9.63912C2.80026 10.5865 3.12821 11.5046 3.72823 12.2378C4.32824 12.9709 5.16338 13.4739 6.092 13.6615C5.4879 13.8263 4.85406 13.8504 4.2392 13.7319C4.50151 14.5472 5.01202 15.2601 5.69937 15.771C6.38671 16.282 7.21652 16.5653 8.0728 16.5815C7.22203 17.2503 6.24776 17.7447 5.20573 18.0365C4.16369 18.3284 3.07435 18.4119 2 18.2823C3.87653 19.4865 6.05994 20.1252 8.2896 20.1223" fill="black"/>
</svg>
